<?xml version="1.0" standalone="no"?>
<!DOCTYPE svg PUBLIC "-//W3C//DTD SVG 20010904//EN"
 "http://www.w3.org/TR/2001/REC-SVG-20010904/DTD/svg10.dtd">
<svg version="1.0" xmlns="http://www.w3.org/2000/svg"
 width="2799.000000pt" height="1362.000000pt" viewBox="0 0 2799.000000 1362.000000"
 preserveAspectRatio="xMidYMid meet">

<g transform="translate(0.000000,1362.000000) scale(0.100000,-0.100000)"
fill="#000000" stroke="none">
<path d="M17970 12501 c-443 -440 -1049 -1041 -1346 -1338 -298 -296 -764
-759 -1035 -1029 -272 -270 -1250 -1239 -2174 -2154 -924 -915 -1773 -1755
-1887 -1868 l-206 -205 -2521 2514 c-1387 1383 -2525 2515 -2530 2517 -4 1
-27 -23 -51 -55 -23 -32 -48 -62 -54 -68 -6 -5 -72 -93 -145 -195 -382 -527
-376 -519 -522 -711 -31 -41 -170 -231 -310 -424 -139 -192 -259 -354 -265
-360 -7 -5 -61 -77 -120 -160 -59 -82 -128 -178 -153 -212 -25 -34 -100 -137
-166 -229 -66 -91 -138 -189 -160 -217 -22 -28 -70 -91 -107 -141 -36 -50 -86
-118 -111 -151 -24 -33 -92 -127 -152 -210 -59 -82 -135 -183 -167 -224 -33
-41 -63 -82 -66 -90 -3 -9 -11 -20 -17 -26 -11 -10 -68 -87 -280 -380 -211
-292 -239 -330 -262 -354 -13 -13 -35 -42 -50 -65 -16 -23 -76 -107 -134 -186
-58 -80 -172 -237 -254 -350 -81 -113 -160 -218 -175 -235 -15 -16 -69 -88
-121 -160 -51 -71 -145 -202 -209 -290 -64 -88 -154 -212 -200 -275 -45 -63
-86 -117 -90 -120 -8 -6 -91 -118 -242 -327 -285 -394 -342 -471 -371 -506
-29 -36 -139 -186 -385 -527 -57 -80 -115 -156 -127 -170 -13 -14 -49 -61 -80
-104 -31 -44 -68 -94 -82 -113 -14 -18 -21 -33 -16 -33 9 0 343 321 723 694
96 95 609 595 1140 1112 531 517 1413 1376 1960 1909 548 534 1056 1024 1130
1090 74 66 201 184 282 262 169 163 228 211 293 243 96 46 189 2 405 -193 99
-89 5080 -5049 5092 -5071 4 -8 1264 1244 3490 3469 3773 3772 3521 3526 3658
3554 44 9 66 8 113 -4 88 -23 16 22 788 -493 179 -119 438 -291 575 -382 137
-91 283 -188 324 -216 41 -28 217 -145 390 -259 173 -115 317 -211 320 -215 3
-4 145 -99 315 -210 171 -111 319 -211 330 -220 11 -10 160 -109 330 -220 171
-112 312 -206 315 -210 3 -4 61 -43 130 -87 69 -44 212 -138 318 -209 215
-143 726 -484 1048 -698 115 -77 259 -172 319 -213 156 -104 723 -482 971
-647 115 -77 259 -172 319 -213 882 -590 1644 -1093 1655 -1093 4 0 -1431
1435 -3189 3189 -1758 1755 -3684 3678 -4281 4275 -597 597 -1092 1086 -1100
1086 -9 0 -378 -360 -820 -799z m9020 -7449 c0 -2 -21 12 -47 31 -27 19 -165
112 -308 207 -143 95 -453 302 -688 459 -236 157 -547 365 -692 461 -145 96
-328 218 -407 271 -215 144 -588 393 -883 589 -145 96 -328 218 -407 271 -374
250 -642 428 -878 584 -333 219 -800 529 -940 625 -61 41 -252 170 -426 285
-174 116 -428 284 -564 375 -137 91 -384 255 -549 365 -166 110 -351 234 -411
275 -279 190 -714 477 -756 498 -179 90 -338 55 -511 -111 -47 -45 -1564
-1560 -3371 -3367 -2326 -2325 -3272 -3265 -3237 -3215 58 83 754 1054 1040
1450 111 154 289 402 395 550 251 350 567 789 970 1350 178 248 418 583 535
745 116 162 357 498 535 745 178 248 459 639 625 870 166 231 406 566 535 745
293 408 775 1079 1070 1490 124 173 367 511 539 750 172 239 385 537 474 661
l162 226 4098 -4091 c2253 -2250 4097 -4092 4097 -4094z m-19569 4198 c2419
-3387 3983 -5576 4008 -5610 14 -19 22 -33 18 -30 -22 15 -711 699 -2020 2005
-2814 2808 -2854 2846 -3006 2963 -76 58 -194 85 -267 62 -68 -22 -136 -75
-306 -238 -91 -87 -225 -212 -298 -277 -74 -66 -323 -304 -554 -529 -772 -752
-1169 -1139 -1361 -1328 -486 -477 -601 -589 -832 -813 -136 -132 -298 -289
-358 -350 -61 -60 -208 -204 -326 -320 -119 -115 -384 -374 -590 -575 -390
-381 -530 -515 -513 -490 5 8 28 37 49 65 22 27 65 84 95 127 55 78 316 434
394 538 23 30 49 66 58 80 9 14 38 53 64 87 27 34 78 101 113 150 35 48 88
120 116 158 28 39 114 156 190 260 76 105 209 285 295 400 86 116 200 271 253
345 54 74 148 204 210 287 237 323 396 539 497 675 58 78 127 173 154 212 27
39 72 100 100 136 28 36 94 124 146 195 147 204 194 268 334 455 177 238 376
510 540 737 36 51 76 104 89 119 12 14 36 45 52 69 17 23 72 100 124 171 52
71 157 215 233 319 76 105 164 224 196 265 32 41 108 145 170 230 284 390 417
571 477 650 82 109 256 346 280 383 15 23 20 26 31 15 7 -7 522 -726 1145
-1598z"/>
<path d="M18899 8111 l-29 -29 0 -434 c0 -483 -2 -468 68 -488 23 -6 195 -10
445 -10 360 0 413 2 444 17 19 9 39 27 44 40 5 13 9 218 9 454 l0 430 -25 24
-24 25 -451 0 -452 0 -29 -29z"/>
<path d="M17726 8109 c-14 -11 -24 -24 -21 -29 3 -5 2 -11 -2 -13 -5 -3 -10
-194 -12 -424 l-3 -420 32 -36 32 -37 454 0 455 0 24 25 25 24 0 441 0 441
-25 24 -24 25 -454 0 c-445 0 -455 0 -481 -21z"/>
<path d="M6305 7155 l-25 -24 0 -367 c0 -328 2 -369 17 -395 l17 -29 391 0
392 0 21 23 c22 23 22 27 22 393 0 203 -4 374 -8 380 -4 5 -18 18 -32 27 -22
15 -64 17 -398 17 l-373 0 -24 -25z"/>
<path d="M5309 7151 l-24 -19 0 -382 0 -382 24 -19 c22 -18 44 -19 405 -19
l383 0 24 26 24 26 0 368 0 368 -24 26 -24 26 -383 0 c-361 0 -383 -1 -405
-19z"/>
<path d="M17725 6865 l-25 -24 0 -441 0 -441 25 -24 24 -25 455 0 455 0 28 24
28 24 0 440 0 440 -24 26 -24 26 -459 0 -459 0 -24 -25z"/>
<path d="M18906 6859 l-26 -31 0 -430 0 -430 29 -29 29 -29 453 0 452 0 23 26
24 25 0 440 0 440 -25 24 -24 25 -455 0 -454 0 -26 -31z"/>
<path d="M5313 6096 l-28 -24 0 -372 0 -372 28 -24 28 -24 377 0 c281 1 381 4
393 13 37 28 39 48 39 417 l0 361 -25 24 -24 25 -380 0 -380 0 -28 -24z"/>
<path d="M6311 6094 c-20 -26 -21 -37 -21 -398 1 -315 3 -374 16 -391 14 -19
28 -20 405 -23 l389 -3 25 25 25 25 0 369 0 368 -28 27 -28 27 -381 0 -382 0
-20 -26z"/>
<path d="M5775 4361 c-22 -13 -39 -38 -59 -87 -32 -77 -156 -354 -217 -482
-21 -46 -39 -88 -39 -93 0 -6 -16 -44 -35 -87 -45 -101 -183 -454 -189 -484
-5 -29 -138 -409 -177 -506 -16 -40 -31 -83 -33 -95 -2 -12 -24 -78 -49 -147
-25 -69 -76 -213 -115 -320 -88 -245 -153 -412 -185 -476 -27 -55 -77 -178
-82 -203 -3 -17 -56 -155 -79 -206 -29 -65 -116 -292 -116 -303 0 -35 -21 4
-79 146 -83 206 -149 384 -156 421 -3 16 -25 80 -48 143 -71 183 -158 423
-162 444 -2 10 -4 19 -5 19 -1 0 -3 7 -5 15 -1 8 -16 51 -33 95 -50 128 -172
487 -178 520 -6 35 -110 345 -166 493 -21 57 -40 113 -42 125 -3 12 -5 23 -7
25 -1 1 -2 5 -3 10 -6 26 -35 104 -82 217 -72 177 -125 312 -129 333 -15 73
-62 191 -85 216 -54 55 -169 38 -186 -28 -13 -51 28 -192 122 -426 52 -129 97
-242 99 -250 2 -8 4 -15 5 -15 1 0 3 -7 5 -15 1 -8 39 -116 83 -240 44 -124
150 -441 237 -705 87 -264 182 -545 212 -625 31 -80 72 -197 94 -260 50 -149
136 -389 148 -415 15 -30 72 -178 76 -195 7 -33 60 -158 87 -201 15 -25 28
-50 28 -55 0 -23 92 -106 134 -120 83 -29 145 5 187 101 12 28 29 68 39 90 35
79 50 118 54 141 6 32 62 184 96 259 15 33 46 110 69 170 23 61 60 151 81 200
60 139 180 446 185 475 7 37 90 272 193 543 17 42 28 77 27 77 -5 0 61 192
130 380 31 85 65 180 75 210 24 74 106 283 119 306 10 17 146 324 197 444 10
25 34 74 52 110 38 74 82 201 82 237 0 77 -101 120 -175 74z"/>
<path d="M14645 4319 c-220 -23 -476 -114 -759 -271 -164 -91 -210 -123 -361
-249 -191 -160 -331 -297 -431 -424 -43 -55 -83 -105 -89 -111 -5 -6 -19 -27
-30 -47 -11 -20 -23 -37 -27 -37 -5 0 -8 -6 -8 -14 0 -8 -4 -16 -8 -18 -25
-10 -138 -214 -177 -318 -15 -41 -38 -97 -50 -125 -72 -162 -123 -328 -149
-494 -23 -138 -32 -461 -16 -547 22 -121 101 -335 131 -354 9 -6 59 -78 59
-86 0 -18 77 -82 144 -118 151 -82 282 -116 443 -116 149 0 372 46 558 115 55
20 120 44 145 53 24 9 100 51 168 94 69 43 127 78 130 78 2 0 32 20 66 44 89
63 356 347 356 378 0 4 19 38 42 75 58 96 92 175 116 273 28 115 29 131 8 162
-22 33 -81 52 -131 42 -47 -8 -95 -54 -96 -91 -4 -139 -52 -243 -217 -465
-195 -263 -658 -522 -1015 -568 -160 -21 -263 -9 -393 46 -52 21 -71 37 -124
102 -69 85 -102 144 -135 243 -19 55 -24 99 -30 240 -6 155 -4 187 16 294 12
66 23 131 24 145 2 14 4 25 5 25 1 0 3 15 6 33 10 78 91 317 148 437 74 157
145 290 166 313 9 9 42 54 74 100 126 180 293 357 450 477 43 33 107 84 142
113 154 127 393 253 624 329 133 44 215 59 361 68 148 9 201 -5 265 -73 42
-44 44 -45 94 -40 90 9 133 76 98 153 -14 32 -97 87 -163 109 -103 33 -261 43
-430 25z"/>
<path d="M6580 4114 l-40 -36 6 -157 c3 -86 11 -237 19 -336 20 -248 33 -483
45 -800 6 -148 15 -371 20 -494 l9 -225 -30 -33 c-39 -45 -41 -102 -3 -132 14
-11 29 -21 34 -23 20 -7 70 -750 70 -1048 0 -74 7 -198 15 -274 13 -132 15
-141 43 -168 37 -38 95 -47 145 -23 20 9 39 24 41 33 9 30 8 134 -3 287 -6 83
-16 267 -22 410 -10 245 -23 431 -50 726 -7 70 -9 133 -6 142 5 14 143 100
277 174 71 39 471 209 630 268 155 57 186 69 235 91 107 47 261 116 273 121
10 4 12 -96 11 -528 -2 -489 0 -552 20 -744 31 -296 40 -404 40 -530 1 -147
24 -185 112 -185 38 0 53 6 78 29 l31 29 -1 179 c0 98 -4 210 -9 248 -43 339
-49 520 -40 1264 l5 385 66 45 c36 25 94 71 128 101 79 69 227 257 236 299 6
28 2 36 -33 71 -32 32 -47 40 -76 40 -48 0 -92 -23 -110 -58 -8 -15 -61 -74
-117 -132 l-104 -105 -6 215 c-4 118 -12 296 -18 395 -6 99 -14 237 -17 308
l-7 127 -34 30 c-41 36 -92 40 -140 10 -52 -31 -54 -43 -43 -217 13 -205 28
-553 36 -819 l6 -212 -164 -79 c-89 -44 -217 -100 -283 -126 -289 -113 -515
-197 -526 -197 -7 0 -115 -55 -241 -121 -126 -67 -230 -120 -232 -118 -1 2 -8
182 -14 399 -11 368 -27 658 -52 960 -6 69 -15 207 -19 306 -5 102 -14 191
-21 203 -15 29 -69 61 -102 61 -18 0 -42 -13 -68 -36z"/>
<path d="M25345 3295 c-311 -82 -451 -151 -575 -282 -173 -183 -243 -286 -311
-462 -21 -53 -50 -125 -64 -160 -16 -39 -29 -89 -31 -125 -2 -34 -4 -61 -4
-61 -6 0 -11 -136 -12 -330 l-1 -240 43 -130 c93 -283 230 -491 363 -554 106
-49 266 -81 409 -81 139 0 194 8 353 52 121 34 164 53 356 163 112 64 149 93
262 200 136 129 160 157 255 310 88 142 180 361 171 406 -2 8 4 52 13 99 32
161 39 205 44 295 5 82 1 126 -25 254 -5 24 -27 81 -50 125 -23 45 -41 92 -41
106 0 14 -19 59 -42 100 -50 87 -97 127 -238 199 -128 66 -185 86 -324 116
-101 21 -144 25 -290 25 -147 -1 -184 -4 -261 -25z m496 -180 c214 -40 370
-128 382 -214 3 -23 25 -72 50 -113 70 -111 95 -174 107 -270 10 -75 9 -108
-9 -247 -12 -88 -26 -172 -31 -186 -6 -15 -22 -72 -36 -128 -29 -113 -47 -153
-126 -277 -90 -142 -123 -182 -232 -282 -111 -103 -180 -153 -291 -213 -115
-63 -121 -65 -227 -96 -149 -44 -309 -50 -445 -19 -98 23 -98 23 -163 89 -96
97 -173 258 -224 466 -37 153 -23 572 24 711 53 154 144 339 199 401 6 7 11
16 11 21 0 6 49 59 109 120 97 98 120 116 203 156 85 42 244 86 393 109 50 8
173 -3 306 -28z"/>
<path d="M16911 3035 c-133 -28 -184 -48 -301 -119 -99 -60 -197 -153 -227
-216 -12 -25 -54 -112 -93 -195 -40 -84 -76 -174 -82 -205 -5 -30 -15 -72 -21
-92 -10 -36 -13 -38 -50 -38 -61 0 -113 -19 -126 -47 -31 -67 6 -121 89 -131
30 -4 55 -11 54 -17 0 -5 -4 -28 -9 -50 -7 -33 2 -153 20 -270 14 -90 69 -254
103 -308 21 -34 54 -86 72 -116 46 -73 84 -118 161 -186 61 -55 159 -113 203
-121 12 -2 51 -16 86 -30 87 -36 260 -45 394 -19 185 34 474 147 622 241 110
71 135 102 230 294 7 14 15 54 19 90 6 62 5 66 -20 90 -23 21 -36 25 -90 25
-84 0 -97 -13 -135 -136 -29 -94 -33 -101 -103 -172 -80 -82 -122 -105 -332
-186 -177 -69 -299 -94 -396 -81 -41 5 -89 14 -108 19 -68 20 -176 95 -254
175 -66 68 -88 100 -139 201 -34 70 -61 138 -63 161 -3 23 -9 61 -14 85 -16
66 -14 309 2 314 40 14 206 27 447 35 151 5 347 14 435 20 88 6 243 15 345 18
183 7 186 7 233 37 26 17 54 44 62 62 18 37 19 123 3 178 -6 22 -13 43 -14 48
-1 4 -3 10 -4 15 -4 13 -7 27 -8 43 -1 9 -12 31 -25 50 -13 19 -33 62 -46 96
-12 33 -30 69 -40 80 -9 10 -47 55 -84 100 -47 57 -93 98 -150 137 -96 65
-127 78 -250 112 -137 37 -254 40 -396 9z m369 -195 c187 -81 284 -188 394
-439 20 -45 36 -95 36 -110 0 -27 -2 -28 -61 -35 -34 -3 -92 -6 -128 -6 -107
1 -1041 -57 -1085 -67 -20 -4 -27 -3 -22 5 4 7 13 36 21 66 20 75 149 350 193
409 37 52 173 147 247 174 146 53 288 54 405 3z"/>
<path d="M19965 3005 c-293 -48 -579 -223 -666 -409 -58 -123 -46 -229 34
-328 79 -96 209 -141 542 -183 110 -14 227 -32 260 -41 33 -8 77 -17 98 -20
21 -2 73 -18 115 -34 157 -61 289 -175 312 -268 24 -102 -14 -211 -99 -281
-118 -96 -296 -181 -480 -229 l-136 -36 -277 -3 c-303 -5 -392 4 -537 53 -201
69 -236 103 -236 229 1 127 48 170 226 205 114 23 145 38 160 77 33 87 -48
133 -178 103 -24 -6 -72 -14 -108 -19 -71 -10 -166 -50 -204 -84 -67 -63 -122
-173 -135 -272 -13 -98 53 -238 144 -304 46 -33 276 -112 412 -142 157 -34
527 -49 698 -29 194 23 489 114 639 196 129 71 263 195 308 286 30 60 53 152
53 214 0 135 -164 321 -375 427 -71 35 -311 107 -420 126 -33 5 -112 15 -175
21 -242 25 -351 55 -417 116 -38 36 -42 65 -16 139 30 89 164 198 323 262 82
34 240 63 341 63 98 0 259 -48 347 -104 105 -66 234 8 182 104 -16 29 -196
119 -295 147 -114 32 -306 40 -440 18z"/>
<path d="M22815 3006 c-168 -28 -297 -79 -444 -174 -163 -106 -248 -223 -258
-355 -7 -86 15 -152 74 -217 89 -99 231 -144 571 -180 57 -6 143 -20 193 -31
49 -10 107 -21 129 -24 91 -12 261 -98 335 -170 88 -85 112 -151 89 -243 -8
-31 -16 -63 -16 -71 -1 -7 -24 -37 -51 -67 -103 -114 -348 -229 -592 -279
-127 -26 -137 -27 -410 -22 -319 5 -346 9 -537 84 l-123 48 -23 67 c-21 60
-23 72 -12 122 20 99 67 134 227 167 121 25 148 39 163 83 27 81 -60 126 -185
96 -22 -6 -71 -15 -109 -20 -90 -13 -187 -61 -234 -116 -87 -100 -123 -264
-83 -378 42 -118 113 -175 293 -236 264 -89 351 -102 698 -103 255 -1 270 0
388 26 167 38 380 109 472 158 154 83 297 215 342 317 23 52 33 115 32 202 -1
91 -37 161 -131 255 -126 126 -240 186 -483 253 -122 34 -191 46 -390 67 -218
24 -307 51 -372 113 -57 53 -23 170 75 257 141 126 301 188 522 202 126 7 231
-16 358 -82 112 -58 158 -61 205 -12 36 37 41 71 14 103 -25 31 -214 120 -307
145 -102 26 -306 34 -420 15z"/>
<path d="M15060 2689 c-248 -73 -398 -111 -690 -174 -146 -31 -337 -72 -425
-91 -88 -19 -198 -41 -245 -49 -276 -46 -304 -53 -327 -80 -48 -55 -15 -126
64 -141 50 -9 271 29 698 122 88 19 237 50 330 69 243 50 567 130 653 162 14
5 15 4 6 -8 -52 -65 -255 -521 -280 -628 -40 -169 -66 -295 -84 -401 -11 -63
-29 -164 -40 -225 -46 -248 -36 -386 40 -575 74 -186 116 -261 188 -337 25
-28 37 -33 76 -33 57 0 88 14 109 50 26 43 21 72 -22 131 -49 69 -121 214
-152 304 -19 55 -24 91 -24 170 1 112 11 265 20 273 3 3 5 25 5 49 0 23 12 96
26 160 14 65 31 150 39 188 26 137 46 208 88 313 45 111 54 134 55 142 0 3 41
88 91 190 50 102 95 199 100 215 6 17 17 48 25 70 17 46 20 108 6 134 -13 25
-81 51 -128 50 -20 -1 -111 -23 -202 -50z"/>
</g>
</svg>
