<?xml version="1.0" standalone="yes"?>
<svg width="2799" height="1362">
<path style="fill:#000000; stroke:none;" d="M0 0L0 1362L2799 1362L2799 0L0 0z"/>
<path style="fill:#a9abae; stroke:none;" d="M1879 38L1836.72 97L1726.72 250L1371.58 745L1246.58 919L1205.58 976L1186 1004C1206.63 989.47 1224.15 966.853 1242 949L1352 839L1693 498L1823 368C1839.29 351.707 1858.11 324.464 1883 322.329C1894.98 321.301 1905.67 328.735 1915 334.999C1926.61 342.792 1938.67 350.003 1950 358.196C1995.95 391.432 2044.46 422.397 2092.04 453.295C2235.67 546.569 2376.05 644.918 2520 737.692C2563.08 765.459 2604.69 795.565 2648 823.053C2663.83 833.097 2679.4 848.331 2697 855L2654 811L2568 725L2296 454L2016 174L1925 83L1879 38z"/>
<path style="fill:#757677; stroke:none;" d="M1877 40L1875 44L1877 40z"/>
<path style="fill:#313334; stroke:none;" d="M1177 1013C1185.7 1006.87 1191.32 996.449 1197.63 988C1211.36 969.615 1224.35 950.656 1237.71 932C1279.98 872.947 1321.84 813.49 1364.88 755C1487.37 588.545 1607.98 420.141 1726.72 251C1760.7 202.601 1796.04 155.116 1830.42 107L1860.58 65C1865.51 58.1094 1872.31 51.1027 1875 43C1867.56 46.5718 1862.27 57.293 1857.66 64C1847.22 79.1763 1836.35 94.2133 1825.37 109C1781.33 168.29 1739.89 229.513 1696.12 289C1579.12 447.994 1466.13 609.959 1350.58 770C1310.45 825.568 1270.17 881.059 1230.58 937C1219.2 953.064 1207.78 969.147 1196.12 985C1189.72 993.691 1181.2 1003.07 1177 1013z"/>
<path style="fill:#b43236; stroke:none;" d="M1868 48L1866 52L1868 48z"/>
<path style="fill:#ed3237; stroke:none;" d="M1865 52C1781.91 131.524 1701.86 214.138 1620 294.996C1517.25 396.49 1414.18 497.819 1312 600C1267.16 644.839 1223.02 691.627 1176 734.17C1164.88 744.233 1154.61 755.395 1144 766C1141.07 768.93 1135.83 776.429 1131 775.4C1127.47 774.646 1124.54 770.479 1122 768.17C1113.99 760.893 1107.1 752.509 1099 745.286C1065.53 715.405 1033.98 681.432 1002.96 649C921.26 563.591 835.798 481.208 751.17 398.714C729.095 377.196 706.442 355.448 685.424 332.911C672.88 319.459 657.368 298.51 641 290L657.579 315L691.975 363L818.576 540L1056.57 873L1123.58 967L1166 1024L1167 1024C1193.12 997.663 1213.4 962.317 1234.72 932C1271.07 880.308 1308.43 829.24 1345.42 778C1461.23 617.601 1576.55 456.866 1691.71 296C1734.45 236.297 1776.88 176.319 1820.15 117C1831.3 101.713 1842.42 86.3964 1853.42 71C1856.84 66.2114 1865.3 57.9355 1865 52z"/>
<path style="fill:#a9abae; stroke:none;" d="M626 276C580.247 343.259 529.179 407.512 480.884 473C405.592 575.096 331.229 677.81 255.985 780C220.151 828.667 183.727 876.83 148.573 926C134.294 945.972 112.582 966.333 103 989C119.337 977.492 132.735 960.93 147 947.015C173.298 921.361 199.439 895.438 226 870.039C312.321 787.499 398.517 704.38 483 620C513.337 589.7 547.269 562.009 576.714 530.911C587.502 519.517 605.093 495.737 623 497.188C641.652 498.7 657.592 517.593 670 530L762 622C849.811 709.811 938.167 797.167 1026 885C1052.17 911.169 1078.85 936.852 1105 963C1116.06 974.056 1128.81 992.38 1143 999L1128.34 977L1094.88 930L1004.71 804L758.573 459L670.573 336L628 276L626 276z"/>
<path style="fill:#313334; stroke:none;" d="M628 277L670.573 337L758.573 460L993.573 789L1103.58 943L1137.12 990L1156 1013C1146.94 991.45 1127.11 970.958 1113.42 952C1084.89 912.479 1056.96 872.518 1028.42 833C940.165 710.762 853.102 587.64 765.427 465C733.042 419.699 700.809 374.3 668.421 329L643.29 294C638.863 287.816 635.11 280.318 628 277z"/>
<path style="fill:#9c1e21; stroke:none;" d="M637 285L641 291L637 285z"/>
<path style="fill:#393636; stroke:none;" d="M1872.67 324.333L1873.33 324.667L1872.67 324.333z"/>
<path style="fill:#626163; stroke:none;" d="M1895.67 324.333L1896.33 324.667L1895.67 324.333z"/>
<path style="fill:#5b5a5c; stroke:none;" d="M1898.67 325.333L1899.33 325.667L1898.67 325.333z"/>
<path style="fill:#565456; stroke:none;" d="M1955 361L1956 362L1955 361M2021 405L2022 406L2021 405M2024 407L2025 408L2024 407M2084 447L2085 448L2084 447M2087 449L2088 450L2087 449M2153 493L2154 494L2153 493z"/>
<path style="fill:#3c3b3c; stroke:none;" d="M617.667 497.333L618.333 497.667L617.667 497.333z"/>
<path style="fill:#49494a; stroke:none;" d="M614.667 498.333L615.333 498.667L614.667 498.333z"/>
<path style="fill:#565456; stroke:none;" d="M597 510L598 511L597 510M594 512L595 513L594 512M439 530L440 531L439 530M438 531L439 532L438 531M2213 533L2214 534L2213 533M572 534L573 535L572 534M2216 535L2217 536L2216 535z"/>
<path style="fill:#ed3237; stroke:none;" d="M1894.43 554.028C1891.2 556.255 1892 561.627 1892 565L1892 597L1892 626C1892 629.598 1890.96 635.383 1893.18 638.486C1896.47 643.096 1908.08 641 1913 641L1961 641C1966.44 641 1975.92 642.775 1980.68 639.682C1984.12 637.447 1983 631.495 1983 628L1983 596L1983 566C1983 562.879 1984.05 557.221 1981.97 554.603C1979 550.849 1966.38 553 1962 553L1913 553C1908.15 553 1898.57 551.179 1894.43 554.028M1865 641L1865 554L1800 554C1794.53 554 1781.01 551.538 1776.6 555.028C1773.17 557.746 1775 568.062 1775 572L1775 622C1775 626.107 1772.93 638.235 1777.32 640.397C1783.52 643.449 1796.13 641 1803 641L1865 641z"/>
<path style="fill:#c2272b; stroke:none;" d="M1865 556L1865 639L1866 639L1866 582L1865 556z"/>
<path style="fill:#46070a; stroke:none;" d="M1983 556L1983 638L1984 638L1984 581L1983 556z"/>
<path style="fill:#731316; stroke:none;" d="M1774 558L1774 639L1775 639L1775 583L1774 558z"/>
<path style="fill:#565456; stroke:none;" d="M2344 620L2345 621L2344 620z"/>
<path style="fill:#991c20; stroke:none;" d="M1894.67 640.333L1895.33 640.667L1894.67 640.333z"/>
<path style="fill:#5a0c0f; stroke:none;" d="M1979.67 640.333L1980.33 640.667L1979.67 640.333z"/>
<path style="fill:#4f090c; stroke:none;" d="M1777 641L1777 642L1864 642L1837 641L1777 641z"/>
<path style="fill:#510a0c; stroke:none;" d="M1898 641L1898 642L1978 642L1953 641L1898 641z"/>
<path style="fill:#84171a; stroke:none;" d="M634 649L634 650L707 650L684 649L634 649z"/>
<path style="fill:#901a1e; stroke:none;" d="M535 650L535 651L608 651L585 650L535 650z"/>
<path style="fill:#ed3237; stroke:none;" d="M633 650L633 722L708 722L708 650L633 650M534 651L534 723L609 723L610 670L608.258 652.028L588 651L534 651z"/>
<path style="fill:#46070a; stroke:none;" d="M632 651L632 721L633 721L633 673L632 651z"/>
<path style="fill:#a21f22; stroke:none;" d="M708 651L708 721L709 721L709 673L708 651z"/>
<path style="fill:#af2226; stroke:none;" d="M533 653L533 720L534 720L534 674L533 653z"/>
<path style="fill:#330405; stroke:none;" d="M610 655L610 719L611 719L611 675L610 655z"/>
<path style="fill:#565456; stroke:none;" d="M2407 662L2408 663L2407 662z"/>
<path style="fill:#ed3237; stroke:none;" d="M1776 765L1866 765L1866 702C1866 696.722 1868.35 683.867 1864.97 679.603C1862.17 676.061 1851.09 678 1847 678L1796 678C1791.77 678 1778.81 675.83 1776.6 680.318C1773.66 686.306 1776 698.373 1776 705L1776 765M1895.32 679.028L1893 690L1893 721L1893 751L1894.18 763.397L1914 765L1964 765L1982.4 763.972L1984 753L1984 723L1984 692L1982.97 679.742L1963 678L1914 678L1895.32 679.028z"/>
<path style="fill:#7e1519; stroke:none;" d="M1775 680L1775 764L1776 764L1776 706L1775 680z"/>
<path style="fill:#3b0606; stroke:none;" d="M1984 680L1984 763L1985 763L1985 706L1984 680z"/>
<path style="fill:#b82429; stroke:none;" d="M1866 682L1866 761L1867 761L1867 707L1866 682z"/>
<path style="fill:#565456; stroke:none;" d="M2473 706L2474 707L2473 706z"/>
<path style="fill:#6d1114; stroke:none;" d="M609.333 719.667L609.667 720.333L609.333 719.667z"/>
<path style="fill:#8a191d; stroke:none;" d="M634 722L634 723L708 723L685 722L634 722z"/>
<path style="fill:#7e1519; stroke:none;" d="M535 723L535 724L608 724L585 723L535 723z"/>
<path style="fill:#565456; stroke:none;" d="M2536 748L2537 749L2536 748z"/>
<path style="fill:#731316; stroke:none;" d="M535 755L535 756L608 756L585 755L535 755M635 755L635 756L708 756L685 755L635 755z"/>
<path style="fill:#ed3237; stroke:none;" d="M610 756L556 756C551.103 756 539.582 753.876 535.603 757.028C530.963 760.703 534 780.339 534 786L534 815C534 818.121 532.954 823.779 535.028 826.397C537.565 829.599 546.368 828 550 828L593 828C596.786 828 606.343 829.716 608.972 826.397C612.01 822.561 610 811.705 610 807L610 756M634 756L634 828L709 828L709 756L634 756z"/>
<path style="fill:#330405; stroke:none;" d="M610 757L610 826L611 826L611 779L610 757z"/>
<path style="fill:#510a0c; stroke:none;" d="M633 757L633 827L634 827L634 779L633 757z"/>
<path style="fill:#991c20; stroke:none;" d="M709 757L709 827L710 827L710 779L709 757z"/>
<path style="fill:#af2226; stroke:none;" d="M533 759L533 823L534 823L534 779L533 759z"/>
<path style="fill:#8a191d; stroke:none;" d="M1777 765L1777 766L1864 766L1837 765L1777 765M1896 765L1896 766L1982 766L1955 765L1896 765z"/>
<path style="fill:#84171a; stroke:none;" d="M1130.67 776.333L1131.33 776.667L1130.67 776.333z"/>
<path style="fill:#565456; stroke:none;" d="M2602 792L2603 793L2602 792z"/>
<path style="fill:#991c20; stroke:none;" d="M536 828L536 829L607 829L585 828L536 828M636 828L636 829L708 829L685 828L636 828z"/>
<path style="fill:#929295; stroke:none;" d="M2697 855L2698 856L2697 855z"/>
<path style="fill:#403e3f; stroke:none;" d="M2698 856L2701 858L2698 856z"/>
<path style="fill:#373435; stroke:none;" d="M308 956C310.236 973.6 318.323 989.577 324.576 1006C334.736 1032.69 345.038 1059.64 353.279 1087C362.912 1118.98 374.231 1150.42 385.003 1182C395.674 1213.29 407.808 1244.03 419.319 1275C422.842 1284.48 428.763 1302.56 440.999 1302.86C448.705 1303.05 451.063 1293.87 453.399 1288C459.996 1271.43 465.669 1254.53 472.403 1238C500.923 1168 526.51 1096.54 550.997 1025C559.318 1000.69 570.617 973.014 583.794 951C586.455 946.554 594.422 930.684 584.985 929.503C578.262 928.662 575.644 938.26 573.576 943C566.409 959.424 558.571 975.573 551.424 992C521.233 1061.4 501.801 1135.02 472.989 1205C464.918 1224.6 457.276 1244.31 449.4 1264C447.669 1268.33 444.179 1283.18 437.104 1279.91C431.972 1277.55 429.753 1267.83 427.799 1263C421.659 1247.83 416.738 1232.3 410.936 1217C387.172 1154.34 369.077 1089.67 345.424 1027C338.375 1008.33 331.445 989.598 324.204 971C320.744 962.113 320.102 951.691 308 956M1475 934.424C1377.22 947.263 1300.23 1018.85 1268.34 1111C1251.92 1158.48 1249.09 1231.58 1304 1253C1311.07 1255.76 1318.41 1257.39 1326 1257.91C1340.65 1258.91 1355.91 1255.6 1370 1251.84C1407.63 1241.81 1445.02 1219.65 1467.25 1187C1475.08 1175.51 1481.29 1163.46 1484.78 1150C1486.16 1144.66 1488.77 1136.34 1480 1136.53C1473.56 1136.67 1473.25 1144.27 1472.19 1149C1469.03 1163.05 1461.41 1175.84 1452.55 1187C1427.51 1218.54 1394.14 1236.15 1356 1246.71C1336.43 1252.12 1310.04 1252.43 1294 1237.9C1266.17 1212.67 1267.78 1171.39 1274.71 1138C1291.24 1058.39 1346.59 990.09 1421 956.665C1440.74 947.798 1470.09 937.253 1492 942.76C1498.08 944.289 1514.7 958.737 1518.88 950.721C1521.46 945.77 1514.73 941.057 1511 939.479C1500.24 934.928 1486.59 932.903 1475 934.424M664.018 953.161C656.553 956.061 659.998 967.011 660 973C660.008 993.765 663.742 1014.29 663.996 1035C664.471 1073.67 668.465 1112.34 668.945 1151C669.016 1156.67 663.134 1160.69 663.546 1165.79C663.87 1169.79 669.279 1172.44 670.111 1177C674.193 1199.36 674.991 1224.29 675 1247C675.007 1265.32 677.345 1283.7 678.011 1302C678.201 1307.23 677.627 1318.07 683.109 1320.78C690.809 1324.58 691.271 1313.54 690.714 1309C688.203 1288.54 689.313 1268.48 687.911 1248C686.565 1228.36 685.697 1208.62 683.83 1189C683.146 1181.81 679.588 1170.8 683.028 1164C687.085 1155.99 699.67 1151.22 707 1146.69C733.67 1130.19 765.385 1122.06 794 1109.72C802.634 1106 811.368 1102.5 820 1098.77C822.963 1097.49 826.598 1094.73 829.981 1095.29C834.771 1096.08 834.973 1101.17 834.999 1105C835.073 1115.67 835 1126.33 835 1137C835 1160.08 833.511 1182.96 835.089 1206C836.274 1223.29 839.791 1240.7 840.004 1258C840.116 1267.17 839.011 1280.18 841.318 1288.98C842.283 1292.66 846.129 1294.87 849.772 1293.25C854.298 1291.24 853 1283.96 853 1280C853 1266.83 852.589 1254.05 850.729 1241C845.294 1202.86 846.287 1163.32 848.911 1125C849.727 1113.07 844.416 1097.34 848.603 1086C850.78 1080.11 857.338 1077.47 862 1073.96C870.019 1067.91 876.582 1060.8 882.801 1053C885.426 1049.7 891.084 1044.72 890.538 1040.06C889.917 1034.76 882.661 1035.54 879.861 1038.32C873.093 1045.03 866.91 1052.37 860 1058.98C856.718 1062.12 852.266 1065.71 848.603 1060.85C844.659 1055.62 847 1043.28 847 1037C846.999 1017.99 844.009 999.001 844 980C843.997 973.918 845.765 954.78 837 954.573C826.576 954.325 831.99 976.94 832 983C832.036 1005.32 833.467 1027.65 834.015 1050C834.217 1058.25 836.795 1067.81 834.682 1075.98C832.464 1084.57 814.252 1088.99 807 1092.31C778.234 1105.48 746.735 1113.25 719 1128.43C711.073 1132.77 702.885 1136.53 695 1141C691.918 1142.75 687.797 1145.63 684.059 1144.35C675.877 1141.56 680.556 1116.13 679.714 1109C677.807 1092.83 679.023 1076.25 677.911 1060C676.407 1038.05 674.003 1015.98 673.039 994C672.567 983.236 673.175 971.637 671.571 961.001C671.007 957.262 669.193 951.151 664.018 953.161z"/>
<path style="fill:#8a8b8d; stroke:none;" d="M102 989L103 990L102 989z"/>
<path style="fill:#87888a; stroke:none;" d="M101 990L102 991L101 990z"/>
<path style="fill:#8e8e91; stroke:none;" d="M1143 998L1147 1004L1143 998z"/>
<path style="fill:#373435; stroke:none;" d="M2552 1035.42C2530.55 1038.24 2507.07 1043.22 2489 1055.9C2458.53 1077.28 2443.54 1117.58 2440.17 1153C2436.95 1186.79 2442.4 1237.12 2472.04 1259.21C2486.52 1270 2510.65 1271.84 2528 1269.71C2581.97 1263.08 2634.08 1220.93 2648.57 1168C2655.15 1143.99 2659.78 1118.37 2653.07 1094C2651.44 1088.06 2647.44 1083.55 2645.08 1078C2642.17 1071.11 2641.38 1064.18 2635.73 1058.46C2623.38 1045.99 2601.78 1039.85 2585 1037.08C2574.16 1035.29 2562.97 1033.98 2552 1035.42z"/>
<path style="fill:#000000; stroke:none;" d="M2554 1042.43C2536.35 1044.83 2518.21 1048.67 2503 1058.44C2468.91 1080.35 2452 1125.21 2452 1164C2452 1194.03 2456.41 1241.28 2487 1257.33C2498.24 1263.22 2515.67 1263.23 2528 1261.71C2584.15 1254.82 2631.48 1203.78 2640.71 1149C2643.65 1131.59 2646.55 1112.08 2640.45 1095C2637.87 1087.77 2633.2 1081.63 2629.47 1075C2625.86 1068.59 2625.25 1063.3 2619 1058.39C2608.28 1049.97 2593.11 1046.39 2580 1044.25C2571.54 1042.86 2562.56 1041.26 2554 1042.43z"/>
<path style="fill:#373435; stroke:none;" d="M1704 1061.43C1681.61 1064.63 1657.24 1072.17 1643.85 1092C1633.15 1107.85 1630.97 1127.48 1622.81 1144C1619.72 1150.23 1606.69 1148.71 1606.04 1154.07C1605.32 1159.95 1619.13 1156.91 1620.28 1164.02C1623.34 1182.89 1620.51 1200.44 1628.53 1219C1632.35 1227.85 1638.05 1237.67 1644.3 1245C1677.97 1284.48 1732.24 1271.52 1772 1249.49C1784.84 1242.37 1792.26 1233.32 1797.98 1220C1799.91 1215.53 1802.8 1206.99 1795.98 1205.32C1786.07 1202.89 1786.11 1218.2 1782.93 1224C1775.69 1237.18 1762.28 1245.01 1749 1250.72C1719.14 1263.57 1690.86 1270.58 1664 1247.57C1658.95 1243.25 1653.67 1238.15 1649.55 1232.91C1637.87 1218.02 1634 1196.26 1634 1178C1634 1172.07 1631.85 1161.61 1638.06 1158.18C1647.12 1153.17 1663.86 1154.4 1674 1153.96C1699.54 1152.84 1725.56 1152.59 1751 1150.17C1762.37 1149.09 1779.07 1154 1787.26 1143.49C1794.19 1134.58 1784.37 1117.01 1780.17 1109C1765.68 1081.32 1738.33 1056.51 1704 1061.43M2066 1080C2030.59 1063.47 1994.09 1058.53 1959 1080.43C1941.76 1091.19 1921.85 1111.04 1936.99 1131.96C1944.5 1142.33 1960.32 1143.98 1972 1146.2C1999.18 1151.35 2030.23 1150.43 2054 1166.99C2071.66 1179.3 2078.87 1199.44 2063.7 1216.99C2033.88 1251.44 1973.6 1254.76 1932 1249C1918.27 1247.1 1891.6 1242.33 1885.76 1228C1879.89 1213.57 1887.07 1197.43 1902 1192.77C1905.62 1191.65 1923.96 1190.55 1923.08 1185.04C1922.48 1181.33 1916.58 1181.94 1914 1182.3C1905.61 1183.48 1895.49 1184.8 1888 1188.9C1866.42 1200.73 1864.94 1231.84 1887 1243.68C1930.48 1267.01 1993.49 1263.28 2038 1245.65C2056.89 1238.16 2082.08 1223.51 2084.82 1201C2086.92 1183.69 2076.43 1171.41 2063 1161.75C2037.66 1143.52 2003.49 1143.65 1974 1138.71C1956.93 1135.86 1936.2 1124.84 1947.53 1105C1961.21 1081.07 2000.87 1068.01 2027 1073.89C2034.11 1075.49 2041.3 1077.44 2048 1080.34C2051.92 1082.03 2056.49 1085.86 2060.91 1085.72C2064.34 1085.61 2065.31 1082.81 2066 1080M2292 1065.42C2278.98 1067.14 2265.84 1068.58 2254 1074.71C2246.33 1078.68 2238.91 1083.16 2232 1088.38C2214.16 1101.84 2208.69 1128.82 2232 1140.18C2246.07 1147.04 2264.67 1147.63 2280 1149.17C2297.34 1150.91 2315.32 1155.11 2331 1162.82C2350.66 1172.49 2365.63 1195.25 2349.66 1215C2320.46 1251.12 2259.25 1254.8 2217 1249C2202.53 1247.01 2175.84 1242.43 2170.09 1227C2164.61 1212.26 2172.09 1197.64 2187 1192.75C2191.02 1191.43 2207.36 1190.87 2207.36 1185.12C2207.36 1181.79 2202.19 1181.96 2200 1182.09C2192.84 1182.52 2183.76 1184.47 2177 1186.87C2145.55 1198 2151.05 1237.76 2180 1247.54C2227.38 1263.53 2280.5 1263.44 2327 1244.09C2355.98 1232.03 2386.44 1198.83 2357.71 1170.42C2352.94 1165.71 2347.81 1161.4 2342 1158.02C2314.69 1142.15 2282.43 1145.05 2253 1137.52C2239.25 1134 2225.03 1126.45 2229.79 1110C2232.07 1102.1 2239.76 1095.59 2246 1090.67C2263.24 1077.08 2289.01 1069.44 2311 1073.81C2321.98 1075.99 2330.87 1081.1 2341 1084.99C2343.65 1086.01 2348.54 1086.41 2349.65 1082.9C2351 1078.66 2340.83 1074.78 2338 1073.37C2324.62 1066.7 2306.82 1063.47 2292 1065.42z"/>
<path style="fill:#000000; stroke:none;" d="M1702 1069.43C1671.15 1073.85 1655.79 1093.01 1643.86 1120C1641.5 1125.33 1631.19 1143.21 1638.32 1147.97C1644.63 1152.19 1665.39 1146.89 1673 1146.17C1699.19 1143.68 1725.74 1143.89 1752 1142.09C1757.89 1141.69 1764.18 1142.85 1770 1141.77C1785.72 1138.85 1768.38 1110.9 1764.78 1104C1753.15 1081.76 1727.69 1065.75 1702 1069.43z"/>
<path style="fill:#373435; stroke:none;" d="M1522 1093.6C1506.06 1097.21 1490.82 1103.45 1475 1107.52C1445.11 1115.21 1414.25 1121.05 1384 1127.2C1372.06 1129.63 1359.98 1131.33 1348 1133.58C1344.7 1134.19 1336.29 1137.89 1343.23 1141.11C1351.61 1144.99 1370.2 1138.16 1379 1136.4C1410.31 1130.14 1442.02 1124.12 1473 1116.37C1482.64 1113.96 1492.54 1111.95 1502 1108.91C1505.77 1107.7 1511.06 1104.78 1514.76 1107.62C1518.8 1110.73 1516.06 1115.49 1514.22 1119C1508.53 1129.85 1503.85 1140.94 1498.59 1152C1487.79 1174.71 1484.23 1199.46 1479.92 1224C1476.16 1245.33 1472.3 1265.69 1478.72 1287C1482.01 1297.92 1486.99 1309.78 1493.76 1319C1496.17 1322.28 1499.35 1327.18 1504.01 1326.71C1507.52 1326.36 1510.24 1323.57 1509 1320C1507.3 1315.04 1502.7 1310.71 1500.26 1306C1494.34 1294.57 1489.84 1282.77 1487.75 1270C1485.22 1254.51 1489.55 1236.25 1492.6 1221C1499.52 1186.43 1509.1 1155.41 1525.51 1124C1530.32 1114.8 1543.92 1088.63 1522 1093.6z"/>
<path style="fill:#1c1b1c; stroke:none;" d="M1719 1151L1719 1152L1736 1152L1719 1151z"/>
<path style="fill:#181718; stroke:none;" d="M1678 1153L1678 1154L1702 1154L1678 1153M2451 1162L2451 1181L2452 1181L2451 1162M1955 1250L1955 1251L1983 1251L1955 1250M2240 1250L2240 1251L2268 1251L2240 1250z"/>
<path style="fill:#1c1b1c; stroke:none;" d="M688 1262L688 1290L689 1290L688 1262z"/>
</svg>
